#!OML:ASF G:\JayActor3\Patient Classification 1\Patient 1\Session 6\male.ASF
:FULLY-SPECIFIED
:DEGREES
872
root 7.11362 15.4071 -3.52233 389.778 -32.1082 -349.43
lowerback 37.3844 3.44972 7.25219
upperback 19.7645 5.43346 3.49729
thorax 3.7021 2.81387 -1.60905
lowerneck 8.90994 -9.86437 -2.10128
upperneck -1.4568 -13.1034 2.47543
head -1.64074 -6.51898 1.62913
rclavicle -1.08139e-013 -6.91771e-014
rhumerus 49.7364 27.7841 17.8926
rradius 28.6174
rwrist -0.701369
rhand -23.6934 -4.88134
rfingers 7.12502
rthumb 2.77342 -34.8431
lclavicle -1.08139e-013 -6.91771e-014
lhumerus -50.764 8.69547 80.8585
lradius 17.7868
lwrist 23.9247
lhand -10.531 10.4535
lfingers 7.12502
lthumb 15.4722 39.8544
rfemur -78.7565 -15.2442 21.8363
rtibia 66.1736
rfoot -26.2938 -13.8684
rtoes 10.0097
lfemur -70.6954 0.59546 -35.0666
ltibia 43.8771
lfoot -4.73537 -10.8838
ltoes 10.6628
873
root 7.1166 15.3825 -3.52188 390.04 -31.9942 -349.099
lowerback 37.661 3.49717 7.20106
upperback 19.858 5.48544 3.58205
thorax 3.70904 2.83124 -1.51275
lowerneck 8.94113 -10.0378 -2.05413
upperneck -1.81051 -13.3216 2.67829
head -1.74545 -6.63471 1.70901
rclavicle 1.59028e-014 5.725e-014
rhumerus 51.3888 28.8713 21.8836
rradius 27.6194
rwrist -1.16419
rhand -22.7471 -5.1856
rfingers 7.12502
rthumb 3.6873 -35.1335
lclavicle 1.59028e-014 5.725e-014
lhumerus -50.9119 8.97296 80.8761
lradius 17.5502
lwrist 23.6813
lhand -9.91615 10.6742
lfingers 7.12502
lthumb 16.0644 40.0283
rfemur -79.531 -15.4849 21.7342
rtibia 66.5917
rfoot -26.3304 -13.8555
rtoes 9.9021
lfemur -71.2543 0.384316 -35.4863
ltibia 44.0588
lfoot -4.64964 -11.1181
ltoes 10.8999
874
root 7.11885 15.358 -3.5206 390.3 -31.8747 -348.771
lowerback 37.9376 3.54013 7.1013
upperback 19.9481 5.51909 3.69456
thorax 3.70308 2.83258 -1.3585
lowerneck 8.99869 -10.17 -2.15212
upperneck -2.16545 -13.499 2.92637
head -1.84362 -6.73141 1.82632
rclavicle 1.27222e-014 3.57812e-015
rhumerus 52.5802 29.3706 24.7177
rradius 26.6922
rwrist -1.42701
rhand -22.422 -5.57274
rfingers 7.12502
rthumb 4.0013 -35.5149
lclavicle 1.27222e-014 3.57812e-015
lhumerus -51.1412 9.41221 80.8419
lradius 17.3455
lwrist 23.4348
lhand -9.31591 10.9111
lfingers 7.12502
lthumb 16.6423 40.2176
rfemur -80.2938 -15.7344 21.6415
rtibia 67.0079
rfoot -26.3772 -13.8384
rtoes 9.7777
lfemur -71.7977 0.185654 -35.9147
ltibia 44.2381
lfoot -4.56198 -11.3776
ltoes 11.2143
875
root 7.12052 15.3332 -3.51853 390.553 -31.7474 -348.443
lowerback 38.2221 3.57827 6.98058
upperback 20.0316 5.54264 3.82507
thorax 3.68296 2.82506 -1.1729
lowerneck 9.06577 -10.2735 -2.33819
upperneck -2.5094 -13.647 3.19179
head -1.93336 -6.81391 1.96253
rclavicle 2.54444e-014 -1.82882e-014
rhumerus 53.1881 29.3296 26.2587
rradius 25.825
rwrist -1.80013
rhand -22.8533 -6.14377
rfingers 7.12502
rthumb 3.58473 -36.0934
lclavicle 2.54444e-014 -1.82882e-014
lhumerus -51.4438 9.90655 80.8061
lradius 17.1768
lwrist 23.2428
lhand -8.82007 11.1471
lfingers 7.12502
lthumb 17.1196 40.4129
rfemur -81.0444 -15.9993 21.5589
rtibia 67.4232
rfoot -26.4288 -13.817
rtoes 9.64036
lfemur -72.3239 -0.0017668 -36.357
ltibia 44.4188
lfoot -4.46849 -11.6634
ltoes 11.5855
876
root 7.12216 15.3085 -3.5155 390.798 -31.6109 -348.118
lowerback 38.5188 3.61809 6.87059
upperback 20.104 5.5736 3.97255
thorax 3.64717 2.81995 -0.978047
lowerneck 9.14372 -10.3734 -2.55102
upperneck -2.8495 -13.7926 3.46287
head -2.02131 -6.89541 2.10601
rclavicle 3.18055e-014 -7.39479e-014
rhumerus 53.2198 28.868 26.6389
rradius 25.0658
rwrist -2.67278
rhand -24.0485 -7.00032
rfingers 7.12502
rthumb 2.43054 -36.9662
lclavicle 3.18055e-014 -7.39479e-014
lhumerus -51.7982 10.3431 80.8286
lradius 17.0322
lwrist 23.1332
lhand -8.45333 11.3768
lfingers 7.12502
lthumb 17.4726 40.6116
rfemur -81.7805 -16.2848 21.4932
rtibia 67.8359
rfoot -26.4832 -13.7901
rtoes 9.50031
lfemur -72.8323 -0.180719 -36.8099
ltibia 44.6035
lfoot -4.37255 -11.9717
ltoes 11.9767
877
root 7.12331 15.2845 -3.51294 391.05 -31.4632 -347.819
lowerback 38.84 3.65528 6.80796
upperback 20.1593 5.61847 4.11629
thorax 3.59211 2.82492 -0.816354
lowerneck 9.20149 -10.4757 -2.72039
upperneck -3.16981 -13.9363 3.72135
head -2.10271 -6.97602 2.23722
rclavicle -1.68569e-013 -1.19271e-014
rhumerus 52.7765 28.0733 26.0645
rradius 24.4487
rwrist -4.18942
rhand -25.9056 -7.98289
rfingers 7.12502
rthumb 0.636914 -37.9617
lclavicle -1.68569e-013 -1.19271e-014
lhumerus -52.1645 10.6524 80.9052
lradius 16.8929
lwrist 23.1402
lhand -8.17891 11.6038
lfingers 7.12502
lthumb 17.7367 40.8149
rfemur -82.5026 -16.5672 21.4669
rtibia 68.2435
rfoot -26.5462 -13.7616
rtoes 9.38075
lfemur -73.3393 -0.310713 -37.2796
ltibia 44.7963
lfoot -4.25625 -12.3412
ltoes 12.3693
878
root 7.12422 15.261 -3.51079 391.301 -31.315 -347.529
lowerback 39.1815 3.69971 6.7815
upperback 20.1991 5.68548 4.26097
thorax 3.51941 2.84282 -0.679542
lowerneck 9.23209 -10.5891 -2.8139
upperneck -3.46965 -14.0873 3.94264
head -2.1798 -7.05976 2.34297
rclavicle -1.27222e-014 3.89618e-014
rhumerus 52.0272 27.0609 24.9049
rradius 24.0021
rwrist -6.30337
rhand -28.2409 -8.883
rfingers 7.12502
rthumb -1.61856 -38.8566
lclavicle -1.27222e-014 3.89618e-014
lhumerus -52.516 10.7944 81.0678
lradius 16.7381
lwrist 23.2261
lhand -7.96852 11.8327
lfingers 7.12502
lthumb 17.9391 41.0254
rfemur -83.2132 -16.8447 21.4574
rtibia 68.6469
rfoot -26.6138 -13.7352
rtoes 9.26625
lfemur -73.8428 -0.404641 -37.7748
ltibia 44.9983
lfoot -4.12259 -12.7541
ltoes 12.755
879
root 7.12504 15.238 -3.50909 391.557 -31.1701 -347.259
lowerback 39.5311 3.74392 6.78378
upperback 20.2256 5.76269 4.4063
thorax 3.43391 2.8672 -0.560419
lowerneck 9.24793 -10.7031 -2.85459
upperneck -3.75651 -14.2352 4.11952
head -2.2568 -7.14127 2.42536
rclavicle -1.59028e-014 2.8625e-014
rhumerus 50.8704 25.3708 22.3261
rradius 23.3327
rwrist -7.4807
rhand -30.5981 -9.22038
rfingers 7.12502
rthumb -3.89501 -39.1645
lclavicle -1.59028e-014 2.8625e-014
lhumerus -52.8596 10.8172 81.3039
lradius 16.5659
lwrist 23.3206
lhand -7.7898 12.0637
lfingers 7.12502
lthumb 18.1111 41.2405
rfemur -83.9136 -17.1049 21.4657
rtibia 69.0439
rfoot -26.6897 -13.7059
rtoes 9.18959
lfemur -74.3505 -0.470274 -38.2744
ltibia 45.211
lfoot -3.96784 -13.1934
ltoes 13.1535
880
root 7.12613 15.2153 -3.5075 391.818 -31.0337 -347.005
lowerback 39.8704 3.78681 6.79737
upperback 20.2496 5.84134 4.5572
thorax 3.35032 2.89243 -0.441482
lowerneck 9.24734 -10.8094 -2.84469
upperneck -4.03814 -14.3706 4.24223
head -2.33722 -7.21548 2.48154
rclavicle -9.85972e-014 3.97569e-014
rhumerus 49.8671 23.6532 19.9566
rradius 22.8198
rwrist -8.54682
rhand -32.755 -9.22798
rfingers 7.12502
rthumb -5.97769 -39.1237
lclavicle -9.85972e-014 3.97569e-014
lhumerus -53.1883 10.7757 81.5952
lradius 16.3727
lwrist 23.3457
lhand -7.57534 12.3064
lfingers 7.12502
lthumb 18.3174 41.464
rfemur -84.6037 -17.343 21.4783
rtibia 69.434
rfoot -26.7708 -13.6732
rtoes 9.13531
lfemur -74.8617 -0.533217 -38.7566
ltibia 45.4335
lfoot -3.801 -13.6242
ltoes 13.565
881
root 7.12776 15.1925 -3.50541 392.085 -30.9101 -346.768
lowerback 40.1868 3.81699 6.82097
upperback 20.2767 5.90607 4.7026
thorax 3.2788 2.91223 -0.328364
lowerneck 9.24279 -10.8993 -2.83182
upperneck -4.32116 -14.487 4.32917
head -2.42121 -7.27944 2.52568
rclavicle -1.59028e-014 1.11319e-014
rhumerus 49.1219 21.9961 17.9245
rradius 22.3409
rwrist -9.04455
rhand -34.4233 -8.97439
rfingers 7.12502
rthumb -7.5882 -38.8183
lclavicle -1.59028e-014 1.11319e-014
lhumerus -53.5024 10.7102 81.9142
lradius 16.1658
lwrist 23.249
lhand -7.30857 12.563
lfingers 7.12502
lthumb 18.574 41.6963
rfemur -85.2859 -17.5593 21.4866
rtibia 69.8159
rfoot -26.8486 -13.6393
rtoes 9.09632
lfemur -75.377 -0.618169 -39.2004
ltibia 45.666
lfoot -3.63797 -14.0121
ltoes 13.969
882
root 7.1302 15.169 -3.50222 392.367 -30.7958 -346.552
lowerback 40.4663 3.82652 6.87249
upperback 20.3098 5.95161 4.83079
thorax 3.23019 2.92694 -0.239756
lowerneck 9.23563 -10.9761 -2.79459
upperneck -4.61151 -14.5858 4.38528
head -2.51231 -7.33418 2.55647
rclavicle 7.31528e-014 5.88403e-014
rhumerus 48.6504 20.4699 16.2617
rradius 21.7975
rwrist -8.7127
rhand -35.396 -8.63386
rfingers 7.12502
rthumb -8.52695 -38.4417
lclavicle 7.31528e-014 5.88403e-014
lhumerus -53.7955 10.6421 82.2153
lradius 15.9479
lwrist 22.9877
lhand -6.91497 12.8415
lfingers 7.12502
lthumb 18.9526 41.9382
rfemur -85.965 -17.7571 21.4951
rtibia 70.1883
rfoot -26.9193 -13.6045
rtoes 9.04197
lfemur -75.901 -0.740887 -39.5886
ltibia 45.9068
lfoot -3.49164 -14.3381
ltoes 14.349
883
root 7.13327 15.145 -3.49796 392.664 -30.6926 -346.356
lowerback 40.7076 3.81749 6.9415
upperback 20.3488 5.97728 4.94154
thorax 3.20307 2.9354 -0.17039
lowerneck 9.22501 -11.0408 -2.73029
upperneck -4.90485 -14.6682 4.41009
head -2.60924 -7.38027 2.57307
rclavicle 8.26944e-014 -6.91771e-014
rhumerus 48.4235 19.0938 14.9214
rradius 21.1487
rwrist -7.49258
rhand -35.7 -8.29638
rfingers 7.12502
rthumb -8.82036 -38.0921
lclavicle 8.26944e-014 -6.91771e-014
lhumerus -54.0801 10.5889 82.4854
lradius 15.7321
lwrist 22.5546
lhand -6.37864 13.1374
lfingers 7.12502
lthumb 19.4683 42.1828
rfemur -86.6415 -17.9364 21.5044
rtibia 70.5491
rfoot -26.9767 -13.5743
rtoes 8.95937
lfemur -76.4323 -0.902967 -39.9165
ltibia 46.154
lfoot -3.37019 -14.5969
ltoes 14.6986
884
root 7.13699 15.1206 -3.49223 392.974 -30.5988 -346.175
lowerback 40.9095 3.78756 7.02849
upperback 20.3929 5.98062 5.02987
thorax 3.19743 2.93707 -0.124866
lowerneck 9.20743 -11.0978 -2.63311
upperneck -5.19511 -14.7385 4.41075
head -2.70911 -7.42008 2.57631
rclavicle -6.99722e-014 2.38542e-014
rhumerus 48.3794 17.8686 13.8232
rradius 20.4163
rwrist -5.57894
rhand -35.4927 -8.07067
rfingers 7.12502
rthumb -8.6203 -37.8747
lclavicle -6.99722e-014 2.38542e-014
lhumerus -54.3622 10.5774 82.6865
lradius 15.5208
lwrist 21.9474
lhand -5.75547 13.4223
lfingers 7.12502
lthumb 20.0674 42.406
rfemur -87.314 -18.1077 21.5129
rtibia 70.8959
rfoot -27.0194 -13.5506
rtoes 8.84291
lfemur -76.9638 -1.11358 -40.1845
ltibia 46.4032
lfoot -3.28599 -14.7779
ltoes 15.0095
885
root 7.14052 15.0969 -3.48622 393.295 -30.5122 -346.013
lowerback 41.089 3.74937 7.1066
upperback 20.4372 5.96996 5.10768
thorax 3.1983 2.93218 -0.0809162
lowerneck 9.17753 -11.1453 -2.51191
upperneck -5.47166 -14.7952 4.39217
head -2.80637 -7.45282 2.56792
rclavicle 2.54444e-014 -3.33958e-014
rhumerus 48.4653 16.7681 12.8766
rradius 19.6415
rwrist -3.27273
rhand -35.0338 -7.90615
rfingers 7.12502
rthumb -8.17742 -37.7279
lclavicle 2.54444e-014 -3.33958e-014
lhumerus -54.624 10.6119 82.8288
lradius 15.2981
lwrist 21.2409
lhand -4.9906 13.7134
lfingers 7.12502
lthumb 20.8024 42.6182
rfemur -87.9751 -18.2624 21.5354
rtibia 71.2252
rfoot -27.0568 -13.5366
rtoes 8.71265
lfemur -77.4932 -1.33651 -40.4097
ltibia 46.6496
lfoot -3.22686 -14.9198
ltoes 15.2791
886
root 7.14369 15.074 -3.47992 393.615 -30.4308 -345.854
lowerback 41.2573 3.70392 7.17743
upperback 20.4763 5.94863 5.17057
thorax 3.1973 2.92278 -0.045558
lowerneck 9.13544 -11.1913 -2.36498
upperneck -5.72701 -14.8465 4.37215
head -2.89683 -7.48329 2.55299
rclavicle 7.31528e-014 3.81667e-014
rhumerus 48.5949 15.7656 11.9691
rradius 18.8841
rwrist -0.914331
rhand -34.6125 -7.78818
rfingers 7.12502
rthumb -7.77079 -37.6254
lclavicle 7.31528e-014 3.81667e-014
lhumerus -54.8671 10.6739 82.9056
lradius 15.0679
lwrist 20.5071
lhand -4.12085 14.0219
lfingers 7.12502
lthumb 21.6379 42.8328
rfemur -88.6237 -18.4142 21.5623
rtibia 71.5387
rfoot -27.0925 -13.5307
rtoes 8.56342
lfemur -78.0099 -1.56591 -40.621
ltibia 46.887
lfoot -3.1906 -15.0421
ltoes 15.4986
